# xmcd
#
# Track frame offsets:
#	150
#	23480
#	36066
#	54059
#	80261
#	99726
#	127544
#	148178
#	171368
#	197586
#	212761
#
# Disc length: 3080 seconds
#
# Revision: 0
# Processed by: cddbd v1.5.2PL0 Copyright (c) Steve Scherf et al.
# Submitted via: dBpowerAMP V4.0
#
DISCID=850c060b
DTITLE=Hot Line - WELLCOME
DYEAR=2008
DGENRE=Funk
TTITLE0=Wellcome
TTITLE1=Put on your shoes
TTITLE2=Place to be
TTITLE3=Dancing
TTITLE4=After hours
TTITLE5=The System
TTITLE6=I can't get
TTITLE7=Oh my gosh
TTITLE8=Mary Jane
TTITLE9=Knock out
TTITLE10=SW-10
EXTD=
EXTT0=
EXTT1=
EXTT2=
EXTT3=
EXTT4=
EXTT5=
EXTT6=
EXTT7=
EXTT8=
EXTT9=
EXTT10=
PLAYORDER=
